# xmcd
#
# Track frame offsets:
#	150
#	18300
#	34223
#	49109
#	59581
#	76406
#	92869
#	105337
#	122531
#	133221
#	150961
#	163999
#	180446
#	195146
#
# Disc length: 2893 seconds
#
# Revision: 0
# Processed by: cddbd v1.5.2PL0 Copyright (c) Steve Scherf et al.
# Submitted via: EZCDAudioConverter 2.1.7.1
#
DISCID=ab0b4b0e
DTITLE=Crowded House - Woodface 1/2
DYEAR=1900
DGENRE=
TTITLE0=Chocolate Cake
TTITLE1=It's Only Natural
TTITLE2=Fall At Your Feet
TTITLE3=Tall Trees
TTITLE4=Weather With You
TTITLE5=Whispers And Moans
TTITLE6=Four Seasons In One Day
TTITLE7=There Goes God
TTITLE8=Fame Is
TTITLE9=All I Ask
TTITLE10=As Sure As I Am
TTITLE11=Italian Plastic
TTITLE12=She Goes On
TTITLE13=How Will You Go
EXTD=
EXTT0=
EXTT1=
EXTT2=
EXTT3=
EXTT4=
EXTT5=
EXTT6=
EXTT7=
EXTT8=
EXTT9=
EXTT10=
EXTT11=
EXTT12=
EXTT13=
PLAYORDER=
